<svg xmlns="http://www.w3.org/2000/svg" width="1200" height="675" viewBox="0 0 1200 675" role="img" aria-labelledby="t d">
  <title id="t">KI-Server mit 128 TB Speicher</title><desc id="d">Serverracks, Memory-Pool und GPU-Ersatz</desc>
  <defs><linearGradient id="g" x1="0" y1="0" x2="1" y2="1"><stop stop-color="#111827"/><stop offset="1" stop-color="#020617"/></linearGradient><filter id="s" x="-10%" y="-10%" width="120%" height="120%"><feDropShadow dx="0" dy="16" stdDeviation="20" flood-opacity=".35"/></filter></defs>
  <rect width="1200" height="675" fill="url(#g)"/>
  <circle cx="1010" cy="115" r="170" fill="#f59e0b" opacity=".15"/><circle cx="180" cy="570" r="210" fill="#f59e0b" opacity=".10"/>
  <g filter="url(#s)"><rect x="96" y="96" width="1008" height="483" rx="34" fill="#0b1220" opacity=".86" stroke="#f59e0b" stroke-opacity=".5"/>
  <rect x="150" y="150" width="220" height="360" rx="28" fill="#111827" stroke="#e5e7eb" stroke-opacity=".28"/><circle cx="260" cy="458" r="18" fill="#f59e0b" opacity=".9"/>
  <path d="M455 210h490M455 280h390M455 350h520M455 420h310" stroke="#e5e7eb" stroke-width="20" stroke-linecap="round" opacity=".15"/>
  <path d="M470 505c70-95 126-95 196 0s126 95 196 0" fill="none" stroke="#f59e0b" stroke-width="18" stroke-linecap="round" opacity=".92"/>
  <text x="455" y="205" fill="#f8fafc" font-family="Inter,Arial,sans-serif" font-size="50" font-weight="800">KI-Server mit 128 TB Speicher</text>
  <text x="455" y="265" fill="#cbd5e1" font-family="Inter,Arial,sans-serif" font-size="27">Serverracks, Memory-Pool und GPU-Ersatz</text>
  <text x="455" y="555" fill="#f59e0b" font-family="Inter,Arial,sans-serif" font-size="24" font-weight="700">ErcanBlog · 06.06.2026</text></g>
</svg>